<svg data-v-fde0c5aa="" xmlns="http://www.w3.org/2000/svg" viewBox="0 0 300 300" class="icon"><!----><defs data-v-fde0c5aa=""><!----></defs><rect data-v-fde0c5aa="" fill="#8143D1" x="0" y="0" width="300px" height="300px" class="logo-background-square"></rect><!----><defs data-v-fde0c5aa=""><!----></defs><g data-v-fde0c5aa="" id="a915ddab-7e5d-44bb-8049-b7ada81667dc" fill="#4CBBE5" stroke="none" transform="matrix(2.4719101123595504,0,0,2.4719101123595504,26.404497918118267,26.407968006776976)"><path d="M94.465 50.91a48.797 48.797 0 0 0-1.052-8.847c-.087-.404-.164-.81-.258-1.209l-.043-.187a44.095 44.095 0 0 0-5.719-13.729C79.536 14.516 65.688 6.261 49.901 6.261c-13.454 0-25.5 6.001-33.633 15.463a44.142 44.142 0 0 0-10.67 27.38 49.295 49.295 0 0 0-.098 3.062c0 .059.004.114.004.175.06 17.145 9.036 32.181 22.528 40.739l2.556-2.555 1.873-1.873a22.32 22.32 0 0 1-11.248-11.368 22.084 22.084 0 0 1-1.302-3.961 8.453 8.453 0 0 1-.033-.661 8.711 8.711 0 0 1 6.079-8.304l1.708-.356 6.149-1.286.176-.036c.134-.023.271-.047.408-.061l.062-.01a5.266 5.266 0 0 1 .966-.004 5.389 5.389 0 0 1 4.812 4.136l.144 1.158 1.416 11.421.566 4.565.259 2.088.094.75a5.573 5.573 0 0 0 2.481 3.598c.62.396 1.323.669 2.078.793l.806.075 15.841 1.481.226.02c.276.063.562.104.856.104.045 0 .087-.011.132-.013a3.803 3.803 0 0 0 3.1-1.807 3.759 3.759 0 0 0 .55-1.709l.111-.889.004.021.251-2.01.469-3.773 2.666-21.41.002-.017a2.134 2.134 0 0 1 4.237.497l-.01.077-2.163 17.372-1.144 9.19-.535 4.302-.037.297a7.379 7.379 0 0 0 9.354-2.248c.064-.088.126-.178.189-.266C89.924 79.641 94.5 66.442 94.5 52.166c-.002-.421-.024-.837-.035-1.256zm-49.612-9.682c-.446 1.418-1.413 2.378-2.159 2.143-.745-.234-.989-1.574-.542-2.992s1.413-2.379 2.159-2.144c.745.235.989 1.575.542 2.993zm12.714 11.678a22.29 22.29 0 0 0-1.561-1.464 34.442 34.442 0 0 0 8.903-23.158c0-2.801-.341-5.52-.969-8.126-.124-.657-.3-1.295-.517-1.915a34.721 34.721 0 0 0-1.043-2.946 25.37 25.37 0 0 1 6.196 16.644c.001 8.697-4.358 16.37-11.009 20.965z"></path></g><!----></svg>