<svg data-v-423bf9ae="" xmlns="http://www.w3.org/2000/svg" viewBox="0 0 428 90" class="iconLeft"><!----><!----><!----><g data-v-423bf9ae="" id="93d030df-f9ce-4c14-9d14-61c8ebe76098" fill="#FFFFFF" transform="matrix(6.329113592966793,0,0,6.329113592966793,107.96122497777898,-7.658225703110915)"><path d="M2.25 8.86L4.35 8.86L4.35 8.86Q4.86 8.86 5.03 8.65L5.03 8.65L5.03 8.65Q5.21 8.44 5.21 8.06L5.21 8.06L5.21 8.06Q5.21 7.43 4.85 7.01L4.85 7.01L4.85 7.01Q4.49 6.59 3.96 6.59L3.96 6.59L3.96 6.59Q3.70 6.59 3.42 6.71L3.42 6.71L3.42 6.71Q3.14 6.83 2.89 7.10L2.89 7.10L2.89 7.10Q2.65 7.36 2.48 7.80L2.48 7.80L2.48 7.80Q2.31 8.23 2.25 8.86L2.25 8.86ZM6.61 9.51L2.23 9.51L2.23 9.51Q2.25 10.78 2.84 11.42L2.84 11.42L2.84 11.42Q3.43 12.07 4.37 12.07L4.37 12.07L4.37 12.07Q5.01 12.07 5.44 11.79L5.44 11.79L5.44 11.79Q5.87 11.52 6.22 11.05L6.22 11.05L6.62 11.30L6.62 11.30Q6.30 12.14 5.57 12.60L5.57 12.60L5.57 12.60Q4.84 13.06 3.82 13.06L3.82 13.06L3.82 13.06Q3.08 13.06 2.48 12.82L2.48 12.82L2.48 12.82Q1.89 12.59 1.46 12.13L1.46 12.13L1.46 12.13Q1.04 11.68 0.81 11.03L0.81 11.03L0.81 11.03Q0.57 10.37 0.57 9.55L0.57 9.55L0.57 9.55Q0.57 8.75 0.83 8.09L0.83 8.09L0.83 8.09Q1.09 7.42 1.55 6.94L1.55 6.94L1.55 6.94Q2.00 6.47 2.62 6.20L2.62 6.20L2.62 6.20Q3.23 5.94 3.93 5.94L3.93 5.94L3.93 5.94Q4.55 5.94 5.06 6.14L5.06 6.14L5.06 6.14Q5.57 6.34 5.94 6.71L5.94 6.71L5.94 6.71Q6.30 7.07 6.50 7.60L6.50 7.60L6.50 7.60Q6.71 8.12 6.71 8.76L6.71 8.76L6.71 8.76Q6.71 8.97 6.68 9.16L6.68 9.16L6.68 9.16Q6.65 9.35 6.61 9.51L6.61 9.51ZM10.61 12.14L11.24 12.14L11.24 12.14Q12.66 12.14 13.22 11.64L13.22 11.64L13.22 11.64Q13.79 11.14 13.79 10.25L13.79 10.25L13.79 10.25Q13.79 9.28 13.20 8.83L13.20 8.83L13.20 8.83Q12.61 8.37 11.26 8.37L11.26 8.37L10.58 8.37L10.58 8.37Q10.58 9.38 10.58 10.30L10.58 10.30L10.58 10.30Q10.58 11.23 10.61 12.14L10.61 12.14ZM11.44 4.30L10.61 4.30L10.61 4.30Q10.58 5.14 10.58 5.98L10.58 5.98L10.58 5.98Q10.58 6.82 10.58 7.67L10.58 7.67L11.21 7.67L11.21 7.67Q12.35 7.67 12.87 7.25L12.87 7.25L12.87 7.25Q13.38 6.83 13.38 5.95L13.38 5.95L13.38 5.95Q13.38 5.07 12.91 4.68L12.91 4.68L12.91 4.68Q12.43 4.30 11.44 4.30L11.44 4.30ZM7.66 3.58L11.89 3.58L11.89 3.58Q13.45 3.58 14.23 4.22L14.23 4.22L14.23 4.22Q15.01 4.86 15.01 5.88L15.01 5.88L15.01 5.88Q15.01 6.58 14.58 7.16L14.58 7.16L14.58 7.16Q14.15 7.74 13.13 7.98L13.13 7.98L13.13 7.98Q13.78 8.09 14.22 8.31L14.22 8.31L14.22 8.31Q14.67 8.53 14.96 8.82L14.96 8.82L14.96 8.82Q15.25 9.11 15.37 9.48L15.37 9.48L15.37 9.48Q15.50 9.86 15.50 10.26L15.50 10.26L15.50 10.26Q15.50 10.74 15.31 11.20L15.31 11.20L15.31 11.20Q15.12 11.66 14.66 12.03L14.66 12.03L14.66 12.03Q14.20 12.40 13.41 12.63L13.41 12.63L13.41 12.63Q12.61 12.85 11.42 12.85L11.42 12.85L7.66 12.85L7.66 12.21L8.86 12.08L8.86 12.08Q8.89 11.20 8.89 10.31L8.89 10.31L8.89 10.31Q8.89 9.42 8.89 8.51L8.89 8.51L8.89 7.92L8.89 7.92Q8.89 7.03 8.89 6.14L8.89 6.14L8.89 6.14Q8.89 5.25 8.86 4.35L8.86 4.35L7.66 4.23L7.66 3.58ZM20.47 11.49L20.47 9.23L20.47 9.23Q20.15 9.32 19.86 9.42L19.86 9.42L19.86 9.42Q19.57 9.52 19.38 9.59L19.38 9.59L19.38 9.59Q18.62 9.88 18.38 10.26L18.38 10.26L18.38 10.26Q18.14 10.63 18.14 11.00L18.14 11.00L18.14 11.00Q18.14 11.28 18.22 11.45L18.22 11.45L18.22 11.45Q18.30 11.62 18.42 11.75L18.42 11.75L18.42 11.75Q18.73 12.05 19.24 12.05L19.24 12.05L19.24 12.05Q19.52 12.05 19.77 11.94L19.77 11.94L19.77 11.94Q20.03 11.82 20.47 11.49L20.47 11.49ZM22.96 11.83L23.28 12.11L23.28 12.11Q23.02 12.63 22.70 12.81L22.70 12.81L22.70 12.81Q22.39 12.99 21.94 12.99L21.94 12.99L21.94 12.99Q21.35 12.99 21 12.74L21 12.74L21 12.74Q20.65 12.49 20.52 12.05L20.52 12.05L20.52 12.05Q20.27 12.31 20.04 12.50L20.04 12.50L20.04 12.50Q19.81 12.68 19.58 12.81L19.58 12.81L19.58 12.81Q19.35 12.94 19.08 13.00L19.08 13.00L19.08 13.00Q18.82 13.06 18.49 13.06L18.49 13.06L18.49 13.06Q17.70 13.06 17.15 12.62L17.15 12.62L17.15 12.62Q16.60 12.18 16.60 11.34L16.60 11.34L16.60 11.34Q16.60 11.03 16.70 10.74L16.70 10.74L16.70 10.74Q16.80 10.44 17.07 10.16L17.07 10.16L17.07 10.16Q17.35 9.87 17.83 9.60L17.83 9.60L17.83 9.60Q18.31 9.34 19.07 9.07L19.07 9.07L19.07 9.07Q19.35 8.97 19.72 8.87L19.72 8.87L19.72 8.87Q20.09 8.76 20.47 8.65L20.47 8.65L20.47 8.27L20.47 8.27Q20.47 7.32 20.18 6.96L20.18 6.96L20.18 6.96Q19.89 6.59 19.21 6.59L19.21 6.59L19.21 6.59Q19.08 6.59 18.93 6.61L18.93 6.61L18.93 6.61Q18.79 6.62 18.63 6.65L18.63 6.65L18.44 7.55L18.44 7.55Q18.27 8.43 17.57 8.43L17.57 8.43L17.57 8.43Q17.26 8.43 17.07 8.25L17.07 8.25L17.07 8.25Q16.87 8.06 16.83 7.77L16.83 7.77L16.83 7.77Q16.97 6.96 17.72 6.45L17.72 6.45L17.72 6.45Q18.48 5.94 19.70 5.94L19.70 5.94L19.70 5.94Q20.90 5.94 21.45 6.52L21.45 6.52L21.45 6.52Q22.01 7.11 22.01 8.57L22.01 8.57L22.01 11.51L22.01 11.51Q22.01 12.17 22.41 12.17L22.41 12.17L22.41 12.17Q22.57 12.17 22.68 12.09L22.68 12.09L22.68 12.09Q22.79 12.01 22.89 11.90L22.89 11.90L22.96 11.83ZM28.62 10.54L29.47 10.54L29.33 12.85L23.66 12.85L23.66 12.32L27.54 6.79L24.99 6.79L24.61 8.34L23.74 8.29L23.86 6.19L29.33 6.19L29.33 6.71L25.51 12.24L28.20 12.24L28.62 10.54ZM34.31 11.49L34.31 9.23L34.31 9.23Q33.99 9.32 33.70 9.42L33.70 9.42L33.70 9.42Q33.42 9.52 33.22 9.59L33.22 9.59L33.22 9.59Q32.47 9.88 32.23 10.26L32.23 10.26L32.23 10.26Q31.99 10.63 31.99 11.00L31.99 11.00L31.99 11.00Q31.99 11.28 32.07 11.45L32.07 11.45L32.07 11.45Q32.14 11.62 32.27 11.75L32.27 11.75L32.27 11.75Q32.58 12.05 33.08 12.05L33.08 12.05L33.08 12.05Q33.36 12.05 33.62 11.94L33.62 11.94L33.62 11.94Q33.88 11.82 34.31 11.49L34.31 11.49ZM36.81 11.83L37.13 12.11L37.13 12.11Q36.86 12.63 36.55 12.81L36.55 12.81L36.55 12.81Q36.23 12.99 35.78 12.99L35.78 12.99L35.78 12.99Q35.20 12.99 34.85 12.74L34.85 12.74L34.85 12.74Q34.50 12.49 34.37 12.05L34.37 12.05L34.37 12.05Q34.12 12.31 33.89 12.50L33.89 12.50L33.89 12.50Q33.66 12.68 33.42 12.81L33.42 12.81L33.42 12.81Q33.19 12.94 32.93 13.00L32.93 13.00L32.93 13.00Q32.66 13.06 32.34 13.06L32.34 13.06L32.34 13.06Q31.54 13.06 31.00 12.62L31.00 12.62L31.00 12.62Q30.45 12.18 30.45 11.34L30.45 11.34L30.45 11.34Q30.45 11.03 30.55 10.74L30.55 10.74L30.55 10.74Q30.65 10.44 30.92 10.16L30.92 10.16L30.92 10.16Q31.19 9.87 31.68 9.60L31.68 9.60L31.68 9.60Q32.16 9.34 32.91 9.07L32.91 9.07L32.91 9.07Q33.19 8.97 33.56 8.87L33.56 8.87L33.56 8.87Q33.94 8.76 34.31 8.65L34.31 8.65L34.31 8.27L34.31 8.27Q34.31 7.32 34.03 6.96L34.03 6.96L34.03 6.96Q33.74 6.59 33.05 6.59L33.05 6.59L33.05 6.59Q32.93 6.59 32.78 6.61L32.78 6.61L32.78 6.61Q32.63 6.62 32.48 6.65L32.48 6.65L32.28 7.55L32.28 7.55Q32.12 8.43 31.42 8.43L31.42 8.43L31.42 8.43Q31.11 8.43 30.91 8.25L30.91 8.25L30.91 8.25Q30.72 8.06 30.67 7.77L30.67 7.77L30.67 7.77Q30.81 6.96 31.57 6.45L31.57 6.45L31.57 6.45Q32.33 5.94 33.54 5.94L33.54 5.94L33.54 5.94Q34.75 5.94 35.30 6.52L35.30 6.52L35.30 6.52Q35.85 7.11 35.85 8.57L35.85 8.57L35.85 11.51L35.85 11.51Q35.85 12.17 36.26 12.17L36.26 12.17L36.26 12.17Q36.41 12.17 36.53 12.09L36.53 12.09L36.53 12.09Q36.64 12.01 36.74 11.90L36.74 11.90L36.81 11.83ZM41.62 11.49L41.62 9.23L41.62 9.23Q41.30 9.32 41.01 9.42L41.01 9.42L41.01 9.42Q40.73 9.52 40.53 9.59L40.53 9.59L40.53 9.59Q39.77 9.88 39.54 10.26L39.54 10.26L39.54 10.26Q39.30 10.63 39.30 11.00L39.30 11.00L39.30 11.00Q39.30 11.28 39.38 11.45L39.38 11.45L39.38 11.45Q39.45 11.62 39.58 11.75L39.58 11.75L39.58 11.75Q39.89 12.05 40.39 12.05L40.39 12.05L40.39 12.05Q40.67 12.05 40.93 11.94L40.93 11.94L40.93 11.94Q41.19 11.82 41.62 11.49L41.62 11.49ZM44.11 11.83L44.44 12.11L44.44 12.11Q44.17 12.63 43.86 12.81L43.86 12.81L43.86 12.81Q43.54 12.99 43.09 12.99L43.09 12.99L43.09 12.99Q42.50 12.99 42.15 12.74L42.15 12.74L42.15 12.74Q41.80 12.49 41.68 12.05L41.68 12.05L41.68 12.05Q41.43 12.31 41.20 12.50L41.20 12.50L41.20 12.50Q40.96 12.68 40.73 12.81L40.73 12.81L40.73 12.81Q40.50 12.94 40.24 13.00L40.24 13.00L40.24 13.00Q39.97 13.06 39.65 13.06L39.65 13.06L39.65 13.06Q38.85 13.06 38.30 12.62L38.30 12.62L38.30 12.62Q37.76 12.18 37.76 11.34L37.76 11.34L37.76 11.34Q37.76 11.03 37.86 10.74L37.86 10.74L37.86 10.74Q37.95 10.44 38.23 10.16L38.23 10.16L38.23 10.16Q38.50 9.87 38.98 9.60L38.98 9.60L38.98 9.60Q39.47 9.34 40.22 9.07L40.22 9.07L40.22 9.07Q40.50 8.97 40.87 8.87L40.87 8.87L40.87 8.87Q41.24 8.76 41.62 8.65L41.62 8.65L41.62 8.27L41.62 8.27Q41.62 7.32 41.34 6.96L41.34 6.96L41.34 6.96Q41.05 6.59 40.36 6.59L40.36 6.59L40.36 6.59Q40.24 6.59 40.09 6.61L40.09 6.61L40.09 6.61Q39.94 6.62 39.79 6.65L39.79 6.65L39.59 7.55L39.59 7.55Q39.42 8.43 38.72 8.43L38.72 8.43L38.72 8.43Q38.42 8.43 38.22 8.25L38.22 8.25L38.22 8.25Q38.02 8.06 37.98 7.77L37.98 7.77L37.98 7.77Q38.12 6.96 38.88 6.45L38.88 6.45L38.88 6.45Q39.63 5.94 40.85 5.94L40.85 5.94L40.85 5.94Q42.06 5.94 42.61 6.52L42.61 6.52L42.61 6.52Q43.16 7.11 43.16 8.57L43.16 8.57L43.16 11.51L43.16 11.51Q43.16 12.17 43.57 12.17L43.57 12.17L43.57 12.17Q43.72 12.17 43.83 12.09L43.83 12.09L43.83 12.09Q43.95 12.01 44.04 11.90L44.04 11.90L44.11 11.83ZM47.35 6.08L47.49 7.56L47.49 7.56Q47.88 6.80 48.40 6.37L48.40 6.37L48.40 6.37Q48.92 5.94 49.45 5.94L49.45 5.94L49.45 5.94Q49.74 5.94 50.05 6.10L50.05 6.10L50.05 6.10Q50.36 6.27 50.44 6.71L50.44 6.71L50.44 6.71Q50.44 7.11 50.19 7.36L50.19 7.36L50.19 7.36Q49.94 7.60 49.53 7.60L49.53 7.60L49.53 7.60Q49.04 7.60 48.59 7.14L48.59 7.14L48.52 7.07L48.52 7.07Q48.20 7.35 47.94 7.71L47.94 7.71L47.94 7.71Q47.68 8.08 47.50 8.57L47.50 8.57L47.50 9.91L47.50 9.91Q47.50 10.36 47.50 10.96L47.50 10.96L47.50 10.96Q47.50 11.55 47.52 12.08L47.52 12.08L48.64 12.29L48.64 12.85L45.00 12.85L45.00 12.29L45.93 12.11L45.93 12.11Q45.95 11.59 45.95 10.98L45.95 10.98L45.95 10.98Q45.95 10.37 45.95 9.91L45.95 9.91L45.95 9.16L45.95 9.16Q45.95 8.58 45.93 8.23L45.93 8.23L45.93 8.23Q45.92 7.87 45.91 7.45L45.91 7.45L44.88 7.32L44.88 6.80L47.14 5.94L47.35 6.08Z"></path></g><!----><g data-v-423bf9ae="" id="1504272f-ce16-4f59-bfb1-3341533af116" transform="matrix(1.028863164673856,0,0,1.028863164673856,-4.94315827498189,-6.180712278537285)" stroke="none" fill="#4CBBE5"><path d="M94.465 50.91a48.797 48.797 0 0 0-1.052-8.847c-.087-.404-.164-.81-.258-1.209l-.043-.187a44.095 44.095 0 0 0-5.719-13.729C79.536 14.516 65.688 6.261 49.901 6.261c-13.454 0-25.5 6.001-33.633 15.463a44.142 44.142 0 0 0-10.67 27.38 49.295 49.295 0 0 0-.098 3.062c0 .059.004.114.004.175.06 17.145 9.036 32.181 22.528 40.739l2.556-2.555 1.873-1.873a22.32 22.32 0 0 1-11.248-11.368 22.084 22.084 0 0 1-1.302-3.961 8.453 8.453 0 0 1-.033-.661 8.711 8.711 0 0 1 6.079-8.304l1.708-.356 6.149-1.286.176-.036c.134-.023.271-.047.408-.061l.062-.01a5.266 5.266 0 0 1 .966-.004 5.389 5.389 0 0 1 4.812 4.136l.144 1.158 1.416 11.421.566 4.565.259 2.088.094.75a5.573 5.573 0 0 0 2.481 3.598c.62.396 1.323.669 2.078.793l.806.075 15.841 1.481.226.02c.276.063.562.104.856.104.045 0 .087-.011.132-.013a3.803 3.803 0 0 0 3.1-1.807 3.759 3.759 0 0 0 .55-1.709l.111-.889.004.021.251-2.01.469-3.773 2.666-21.41.002-.017a2.134 2.134 0 0 1 4.237.497l-.01.077-2.163 17.372-1.144 9.19-.535 4.302-.037.297a7.379 7.379 0 0 0 9.354-2.248c.064-.088.126-.178.189-.266C89.924 79.641 94.5 66.442 94.5 52.166c-.002-.421-.024-.837-.035-1.256zm-49.612-9.682c-.446 1.418-1.413 2.378-2.159 2.143-.745-.234-.989-1.574-.542-2.992s1.413-2.379 2.159-2.144c.745.235.989 1.575.542 2.993zm12.714 11.678a22.29 22.29 0 0 0-1.561-1.464 34.442 34.442 0 0 0 8.903-23.158c0-2.801-.341-5.52-.969-8.126-.124-.657-.3-1.295-.517-1.915a34.721 34.721 0 0 0-1.043-2.946 25.37 25.37 0 0 1 6.196 16.644c.001 8.697-4.358 16.37-11.009 20.965z"></path></g><!----></svg>