<?xml version="1.0" standalone="no"?>
<!DOCTYPE svg PUBLIC "-//W3C//DTD SVG 20010904//EN"
 "http://www.w3.org/TR/2001/REC-SVG-20010904/DTD/svg10.dtd">
<svg version="1.0" xmlns="http://www.w3.org/2000/svg"
 width="976.000000pt" height="976.000000pt" viewBox="0 0 976.000000 976.000000"
 preserveAspectRatio="xMidYMid meet">
<metadata>
Created by potrace 1.11, written by Peter Selinger 2001-2013
</metadata>
<g transform="translate(0.000000,976.000000) scale(0.100000,-0.100000)"
fill="#000000" stroke="none">
<path d="M4609 9666 c-2 -2 -47 -7 -99 -10 -52 -4 -114 -9 -137 -11 -91 -10
-139 -16 -158 -21 -18 -4 -62 -9 -150 -19 -16 -2 -31 -4 -32 -5 -4 -3 -11 -5
-68 -15 -70 -12 -69 -12 -75 -14 -3 -2 -16 -4 -30 -6 -34 -5 -245 -58 -355
-90 -49 -14 -97 -28 -105 -30 -8 -2 -42 -13 -75 -25 -33 -11 -76 -26 -95 -32
-19 -5 -40 -14 -46 -19 -6 -5 -19 -10 -30 -12 -10 -2 -30 -9 -44 -14 -14 -6
-48 -20 -76 -31 -65 -26 -121 -52 -254 -115 -58 -28 -107 -51 -110 -52 -3 0
-16 -7 -30 -14 -14 -8 -54 -30 -90 -49 -71 -38 -249 -142 -265 -155 -5 -4 -53
-36 -105 -70 -52 -34 -101 -67 -108 -74 -7 -7 -17 -13 -21 -13 -5 0 -21 -11
-37 -25 -33 -29 -39 -34 -74 -56 -14 -9 -36 -26 -50 -38 -44 -39 -64 -55 -105
-86 -22 -16 -52 -41 -67 -55 -15 -14 -48 -43 -74 -65 -56 -47 -320 -308 -384
-380 -47 -53 -134 -154 -160 -186 -8 -11 -24 -31 -35 -45 -11 -14 -28 -34 -37
-46 -17 -20 -58 -75 -140 -191 -62 -86 -69 -96 -67 -103 0 -4 -3 -10 -8 -13
-11 -7 -85 -121 -134 -206 -18 -33 -39 -69 -46 -80 -7 -11 -17 -30 -22 -42 -5
-11 -15 -24 -20 -28 -6 -3 -11 -13 -11 -22 0 -8 -9 -27 -20 -43 -11 -15 -17
-30 -13 -34 3 -3 2 -6 -4 -6 -10 0 -19 -19 -21 -44 0 -5 -4 -12 -9 -15 -6 -5
-63 -113 -68 -131 -1 -3 -5 -17 -9 -32 -5 -16 -12 -28 -17 -28 -5 0 -9 -9 -9
-19 0 -11 -5 -23 -10 -26 -6 -4 -8 -11 -5 -16 4 -5 1 -9 -4 -9 -6 0 -11 -7
-11 -15 0 -8 -9 -34 -19 -58 -37 -81 -112 -290 -117 -322 0 -5 -6 -23 -12 -38
-7 -16 -12 -34 -12 -42 0 -8 -5 -17 -10 -20 -6 -4 -8 -10 -5 -15 3 -5 0 -21
-6 -37 -7 -15 -13 -32 -15 -38 -1 -5 -7 -30 -14 -55 -20 -78 -78 -339 -85
-383 -4 -23 -8 -51 -10 -62 -2 -11 -4 -22 -5 -25 -1 -3 -2 -8 -1 -12 0 -4 -4
-31 -9 -60 -9 -54 -18 -128 -26 -208 -2 -25 -6 -67 -9 -95 -20 -192 -27 -745
-11 -955 5 -63 10 -126 10 -140 1 -14 4 -29 6 -35 3 -5 5 -34 5 -62 0 -29 2
-53 5 -53 3 0 7 -15 9 -33 3 -47 9 -88 16 -122 4 -16 8 -43 9 -60 2 -16 8 -55
14 -85 7 -30 14 -66 16 -80 3 -14 8 -36 11 -50 3 -14 7 -36 10 -50 12 -62 70
-286 83 -320 5 -14 10 -28 11 -32 0 -5 1 -9 2 -10 0 -2 2 -11 5 -20 6 -28 10
-42 17 -58 3 -8 11 -33 17 -55 6 -22 15 -49 20 -60 5 -11 21 -56 36 -100 15
-44 34 -96 43 -115 8 -19 16 -39 16 -45 1 -5 10 -30 22 -55 19 -43 64 -148 77
-180 3 -8 10 -22 15 -30 5 -8 31 -60 57 -115 27 -55 60 -121 75 -147 15 -25
25 -49 22 -52 -4 -3 -2 -6 4 -6 6 0 16 -12 22 -28 6 -15 22 -45 35 -67 14 -22
41 -67 61 -100 67 -113 185 -289 197 -293 4 -2 8 -9 8 -14 0 -10 134 -195 150
-208 3 -3 17 -21 30 -40 14 -19 32 -42 40 -51 8 -9 35 -40 60 -70 237 -281
546 -577 815 -781 6 -4 26 -21 46 -38 20 -16 41 -30 47 -30 6 0 12 -3 14 -7 5
-13 76 -63 87 -63 6 0 11 -5 11 -10 0 -6 8 -14 17 -17 10 -4 26 -14 36 -23 9
-9 30 -23 45 -31 15 -8 29 -17 32 -20 3 -4 20 -15 39 -26 l34 -19 239 238
c131 131 238 241 238 244 0 3 -20 14 -45 25 -24 11 -47 24 -50 29 -4 6 -10 8
-15 5 -5 -3 -11 -1 -15 4 -3 6 -27 20 -53 33 -26 13 -48 26 -50 31 -2 4 -10 7
-18 7 -8 0 -14 5 -14 11 0 5 -4 8 -9 5 -4 -3 -16 3 -26 14 -10 11 -24 20 -31
20 -7 0 -14 3 -16 8 -1 4 -22 20 -46 35 -48 31 -46 29 -167 130 -93 77 -139
121 -235 223 -66 70 -170 199 -170 211 0 5 -9 15 -20 23 -11 8 -20 19 -20 24
0 5 -11 24 -25 42 -14 18 -25 37 -25 43 0 6 -4 11 -9 11 -5 0 -13 10 -17 23
-4 12 -9 24 -13 27 -15 12 -131 240 -131 258 0 6 -4 12 -9 12 -5 0 -11 10 -14
22 -3 13 -23 74 -46 137 -96 264 -106 385 -50 591 31 113 62 180 135 290 41
63 134 163 188 205 15 11 32 25 39 31 6 5 28 19 47 30 19 10 37 22 40 25 3 3
20 11 38 18 17 8 32 18 32 24 0 6 3 7 7 4 3 -4 12 -2 20 4 7 6 13 8 13 4 0 -4
6 -3 13 2 10 9 30 15 82 29 6 1 26 5 45 9 19 3 55 11 80 16 55 13 89 20 115
23 11 2 39 8 62 15 23 6 45 11 50 10 4 -1 11 0 16 1 4 1 12 4 17 5 6 1 11 3
13 5 3 2 33 8 72 14 17 3 41 8 55 11 14 3 36 7 50 10 25 5 52 11 93 20 12 3
33 8 47 10 14 2 48 9 75 15 132 29 240 31 330 5 59 -17 125 -44 135 -54 3 -4
18 -13 33 -21 45 -23 141 -119 181 -182 20 -31 36 -59 36 -62 0 -3 5 -17 12
-33 6 -15 13 -32 14 -38 8 -23 25 -124 30 -180 3 -33 7 -71 10 -85 2 -14 7
-47 10 -75 3 -27 7 -61 10 -75 2 -14 6 -47 9 -75 3 -27 8 -68 11 -90 4 -22 7
-53 9 -70 2 -16 7 -55 11 -85 4 -30 8 -72 8 -92 1 -21 4 -38 7 -38 3 0 5 -10
4 -23 -1 -12 3 -28 9 -36 9 -12 8 -13 -3 -6 -10 6 -12 4 -7 -4 5 -7 9 -24 11
-39 8 -58 16 -129 20 -172 3 -25 8 -63 11 -85 3 -22 8 -56 10 -75 2 -19 6 -53
8 -75 3 -22 8 -62 11 -90 3 -27 8 -61 10 -75 6 -35 15 -107 20 -160 2 -25 7
-61 9 -80 3 -19 7 -53 10 -75 3 -22 7 -56 10 -75 3 -19 7 -55 10 -80 11 -90
18 -146 22 -170 2 -14 6 -42 9 -62 2 -21 11 -51 20 -68 8 -16 16 -33 16 -37 2
-18 42 -93 55 -104 8 -6 14 -16 14 -22 0 -15 121 -129 156 -147 16 -8 31 -17
34 -20 8 -8 102 -48 140 -59 43 -13 109 -20 415 -46 22 -2 40 -4 40 -5 0 -1
27 -3 60 -6 64 -4 112 -9 215 -18 36 -4 94 -9 130 -11 36 -3 81 -7 100 -10 19
-3 62 -7 95 -10 33 -3 83 -8 110 -10 28 -3 77 -7 110 -10 33 -3 80 -7 105 -10
25 -3 72 -8 105 -10 33 -3 80 -8 105 -10 25 -3 74 -7 110 -10 108 -10 152 -14
210 -22 114 -15 183 -7 263 30 80 37 164 112 196 176 26 49 49 134 56 201 3
30 7 66 10 80 4 23 11 75 19 155 9 78 18 148 21 165 2 10 7 45 10 77 4 32 8
69 10 83 11 85 18 157 19 173 0 9 3 17 6 17 3 0 5 17 6 38 1 37 10 126 18 172
3 14 7 52 11 85 3 33 8 69 10 80 2 11 7 48 10 82 3 34 7 68 10 75 2 7 7 40 10
73 3 33 8 74 10 90 2 17 7 50 9 75 3 25 8 63 11 85 3 22 8 60 10 85 2 25 4 45
5 45 2 0 4 18 5 40 2 22 4 40 5 40 1 0 4 14 5 30 3 32 15 133 21 175 2 14 5
45 8 70 3 25 7 59 10 75 2 17 8 59 11 95 4 36 9 74 11 85 2 11 6 43 9 70 4 28
8 61 10 75 6 38 17 130 20 175 2 22 5 40 5 40 2 0 6 26 14 100 3 28 8 68 12
90 3 22 7 58 9 80 1 22 4 40 5 40 1 0 3 14 5 31 3 31 32 94 57 124 75 91 242
100 330 18 15 -13 38 -45 52 -71 22 -43 25 -57 21 -125 -3 -42 -6 -90 -9 -107
-2 -16 -7 -50 -10 -75 -6 -54 -15 -122 -21 -172 -3 -21 -7 -55 -10 -75 -2 -21
-7 -58 -10 -83 -3 -25 -8 -63 -10 -85 -3 -22 -8 -56 -10 -75 -3 -19 -7 -60
-11 -90 -3 -30 -7 -67 -10 -82 -2 -16 -6 -40 -8 -55 -3 -16 -7 -53 -10 -83 -4
-30 -8 -71 -11 -90 -11 -87 -18 -137 -21 -167 -1 -17 -5 -49 -8 -70 -5 -35
-11 -84 -22 -173 -2 -19 -6 -48 -8 -65 -3 -16 -7 -57 -11 -90 -3 -33 -8 -73
-11 -90 -3 -16 -7 -46 -9 -65 -2 -19 -6 -55 -10 -80 -3 -25 -8 -65 -10 -90 -2
-25 -6 -54 -8 -65 -3 -11 -8 -49 -12 -85 -4 -36 -9 -73 -11 -83 -2 -10 -6 -46
-9 -80 -3 -34 -8 -75 -10 -92 -8 -51 -16 -118 -20 -160 -2 -22 -4 -40 -5 -40
-1 0 -4 -13 -5 -30 -2 -16 -6 -57 -10 -90 -4 -33 -9 -71 -10 -85 -2 -14 -6
-45 -9 -70 -4 -25 -11 -81 -16 -125 -6 -44 -12 -93 -15 -110 -2 -16 -7 -55
-10 -85 -6 -54 -21 -165 -30 -226 -5 -28 -2 -33 37 -51 49 -24 89 -38 133 -48
17 -4 39 -9 50 -12 53 -13 234 -11 300 3 39 9 76 16 83 17 6 0 12 3 12 7 0 3
8 6 19 7 26 2 151 64 151 75 0 5 5 6 10 3 6 -3 10 -1 10 4 0 6 6 11 13 11 21
0 152 126 201 193 25 34 51 69 58 77 7 8 29 40 48 70 19 30 40 61 47 68 7 7
13 17 13 22 0 5 6 15 12 22 24 25 58 77 58 88 0 5 3 10 8 10 7 0 13 10 42 66
8 16 17 31 20 34 12 10 70 111 70 120 0 6 4 10 9 10 5 0 11 8 14 18 6 16 37
74 95 172 15 25 45 81 67 125 22 44 44 83 48 86 5 3 8 8 7 10 -1 2 25 60 58
129 33 69 81 175 106 235 26 61 51 119 56 130 9 18 31 72 35 85 1 3 7 18 13
33 7 16 12 33 12 38 0 5 4 17 9 27 23 45 89 220 95 252 2 8 6 22 9 30 8 21 39
113 41 125 2 6 13 44 26 85 13 41 25 80 26 85 1 6 23 91 48 189 26 99 48 189
50 200 3 12 11 53 20 91 19 91 26 125 30 150 2 11 6 36 10 55 4 19 9 49 11 65
2 17 4 30 5 30 2 0 8 33 14 77 2 15 7 32 12 39 5 8 3 9 -6 4 -9 -5 -11 -4 -6
4 8 13 15 44 21 105 3 22 7 55 9 71 6 41 16 129 22 195 3 30 7 73 9 95 26 275
27 867 0 1085 -2 19 -6 62 -9 95 -3 33 -8 71 -10 85 -5 23 -13 87 -21 150 -2
14 -4 25 -5 25 -1 0 -3 14 -5 30 -1 17 -3 30 -5 30 -1 0 -3 15 -5 34 -2 19 -7
46 -10 60 -4 14 -9 37 -11 51 -10 54 -46 219 -64 291 -11 42 -21 85 -23 95 -1
10 -5 24 -8 29 -4 6 -10 24 -14 40 -5 17 -9 35 -11 40 -4 15 -15 58 -18 72 -1
7 -5 16 -9 19 -4 4 -7 13 -7 20 0 7 -4 23 -9 36 -5 13 -10 28 -11 33 -2 6 -16
46 -33 90 -16 44 -36 98 -43 120 -8 22 -19 48 -24 57 -6 10 -10 25 -10 33 0 8
-4 15 -10 15 -5 0 -10 7 -10 15 0 28 -171 384 -245 509 -25 42 -45 81 -45 86
0 6 -4 10 -10 10 -5 0 -12 11 -16 25 -3 14 -9 25 -13 25 -3 0 -18 21 -31 48
-14 26 -28 49 -31 52 -3 3 -30 41 -59 85 -51 76 -202 282 -247 335 -244 292
-466 515 -706 710 -10 8 -28 23 -40 34 -29 24 -163 127 -191 146 -12 8 -92 61
-177 117 -84 57 -159 106 -164 110 -6 5 -28 18 -50 30 -22 11 -56 30 -75 41
-97 57 -444 225 -522 253 -21 7 -38 16 -38 19 0 4 -6 7 -12 7 -11 0 -172 57
-263 93 -11 5 -54 18 -95 30 -41 12 -86 26 -100 31 -22 7 -83 23 -130 35 -8 2
-44 11 -80 19 -36 9 -74 18 -85 20 -11 2 -51 11 -90 18 -38 8 -86 17 -105 20
-19 3 -46 8 -60 11 -14 3 -47 8 -75 11 -27 4 -61 9 -75 11 -26 4 -61 8 -165
19 -33 3 -80 8 -105 11 -50 6 -635 15 -641 10z m1694 -1066 c35 -41 87 -110
87 -116 0 -3 6 -12 13 -19 25 -28 34 -42 95 -140 57 -92 201 -368 206 -397 1
-7 10 -31 20 -53 10 -22 19 -47 21 -55 2 -8 4 -16 5 -17 2 -2 3 -6 5 -10 1 -5
4 -15 8 -23 12 -32 67 -216 71 -240 3 -14 5 -25 6 -25 2 0 6 -16 14 -60 3 -16
8 -41 11 -55 12 -64 16 -88 21 -125 2 -21 7 -51 10 -65 5 -27 16 -183 18 -267
0 -29 6 -53 11 -53 6 0 6 -3 0 -8 -6 -4 -11 -36 -11 -72 -1 -109 -16 -304 -30
-370 -3 -14 -7 -41 -9 -60 -2 -19 -4 -35 -5 -35 -1 0 -3 -11 -6 -25 -2 -14 -8
-43 -14 -65 -6 -22 -12 -49 -13 -60 -6 -33 -27 -107 -48 -163 -10 -28 -19 -55
-20 -60 -2 -12 -10 -35 -22 -67 -7 -16 -12 -32 -13 -35 -1 -7 -22 -60 -34 -85
-5 -11 -23 -51 -40 -90 -17 -38 -35 -77 -39 -85 -61 -115 -181 -313 -193 -318
-4 -2 -8 -10 -8 -18 0 -8 -4 -14 -9 -14 -5 0 -12 -8 -15 -17 -4 -10 -19 -32
-34 -50 -15 -17 -37 -44 -49 -60 -12 -15 -31 -38 -43 -50 -11 -13 -19 -23 -16
-23 3 0 -7 -13 -22 -28 -15 -16 -46 -49 -68 -73 -89 -95 -227 -221 -303 -279
-19 -14 -41 -32 -50 -40 -41 -37 -95 -68 -106 -62 -7 4 -46 39 -88 78 l-76 71
41 49 c22 27 43 51 47 54 26 18 301 399 301 416 0 2 5 10 10 17 23 27 58 86
54 90 -3 2 2 10 11 17 8 7 15 18 15 25 0 8 4 15 8 17 4 2 22 32 40 68 18 36
42 81 53 100 10 19 19 40 19 47 0 7 5 13 10 13 6 0 9 3 8 8 -1 4 5 23 14 42
24 51 77 170 77 173 0 1 5 16 11 32 7 17 13 35 14 40 1 6 4 15 8 20 13 22 103
311 113 366 2 9 8 33 13 53 6 20 8 36 5 36 -3 0 0 7 7 15 7 8 10 15 7 15 -3 0
-1 15 4 33 5 17 12 49 14 70 2 21 6 41 9 46 3 4 8 34 11 67 4 32 8 61 10 65 2
3 7 32 10 65 3 32 8 77 10 99 24 234 24 556 0 761 -2 22 -6 59 -9 84 -3 25 -8
56 -10 70 -3 14 -8 45 -11 70 -9 65 -14 93 -18 110 -7 26 -20 94 -22 110 -1 8
-5 22 -8 30 -3 8 -8 29 -11 45 -9 55 -32 145 -46 180 -5 11 -22 61 -38 110
-16 50 -41 122 -56 160 -24 64 -24 68 -5 45 11 -14 30 -36 42 -50z m-2027
-2446 c30 -20 50 -56 58 -106 3 -21 6 -41 7 -45 1 -4 1 -10 0 -13 -1 -3 -4
-28 -6 -56 -8 -93 -65 -225 -124 -281 -38 -36 -102 -64 -118 -51 -7 6 -13 7
-13 4 0 -4 -9 -2 -20 4 -22 12 -48 57 -58 99 -9 43 -2 192 10 201 4 3 9 15 11
25 6 38 61 136 95 171 59 60 113 77 158 48z"/>
</g>
</svg>
